<?xml version="1.0" standalone="no"?>
<!DOCTYPE svg PUBLIC "-//W3C//DTD SVG 20010904//EN"
 "http://www.w3.org/TR/2001/REC-SVG-20010904/DTD/svg10.dtd">
<svg version="1.0" xmlns="http://www.w3.org/2000/svg"
 width="500.000000pt" height="500.000000pt" viewBox="0 0 500.000000 500.000000"
 preserveAspectRatio="xMidYMid meet">
<metadata>
Created by potrace 1.14, written by Peter Selinger 2001-2017
</metadata>
<g transform="translate(0.000000,500.000000) scale(0.100000,-0.100000)"
fill="#000000" stroke="none">
<path d="M3327 4681 c-13 -112 -64 -161 -372 -361 -428 -277 -489 -356 -450
-579 11 -62 14 -136 7 -148 -5 -8 -31 16 -74 70 -37 45 -77 94 -90 108 -295
335 -406 520 -409 680 0 39 -1 41 -10 20 -16 -41 -22 -134 -10 -176 6 -22 11
-44 13 -50 1 -5 24 -55 51 -110 27 -55 60 -123 72 -152 40 -90 100 -184 213
-336 203 -273 252 -415 218 -637 -7 -45 -46 -201 -53 -209 -6 -8 -94 82 -108
110 -11 20 -14 63 -12 165 2 132 1 141 -23 184 -71 127 -168 175 -719 358
-464 155 -545 199 -570 307 l-9 40 -1 -40 c-1 -59 21 -121 81 -224 49 -86 186
-300 198 -311 3 -3 39 -49 79 -103 190 -251 348 -380 506 -413 71 -15 111 -11
272 23 l122 25 28 -20 c15 -11 55 -48 87 -81 l59 -60 -23 -63 c-22 -63 -113
-296 -129 -333 -76 -172 -166 -461 -187 -600 -13 -86 -15 -323 -2 -331 13 -8
203 -6 231 2 15 5 17 12 11 37 -9 41 -9 99 0 162 31 213 64 344 101 404 77
124 233 281 280 281 16 0 89 -38 135 -70 69 -48 114 -64 190 -64 62 -1 85 4
133 26 98 46 223 157 397 354 178 202 412 532 444 628 22 66 21 67 -14 13 -16
-25 -47 -58 -70 -72 -39 -25 -183 -77 -245 -90 -16 -3 -41 -8 -55 -11 -14 -3
-32 -7 -40 -9 -8 -3 -76 -16 -150 -30 -158 -29 -155 -28 -245 -50 -38 -9 -77
-18 -85 -20 -8 -2 -17 -4 -20 -5 -3 -1 -9 -3 -15 -4 -23 -3 -153 -50 -190 -69
-90 -45 -153 -119 -169 -197 -4 -19 -9 -84 -12 -144 -3 -72 -10 -118 -21 -140
-9 -17 -50 -62 -91 -101 -41 -38 -94 -94 -118 -123 -24 -30 -44 -51 -44 -47 0
15 62 181 104 280 58 135 131 360 151 467 15 80 21 252 10 313 -3 17 -8 46
-11 65 -9 55 -71 207 -110 271 -54 90 -42 106 71 98 28 -2 82 -4 120 -4 158 0
251 98 393 416 65 143 162 439 187 564 6 35 8 155 2 161 -2 3 -7 -18 -10 -45z"/>
<path d="M3078 1212 l-38 -3 0 -280 0 -279 70 0 c60 0 70 3 71 18 0 9 1 44 2
76 2 51 5 59 22 61 11 2 41 6 68 9 92 11 180 77 194 145 27 133 -53 230 -203
246 -80 8 -142 11 -186 7z m202 -127 c20 -11 32 -27 40 -54 17 -66 -15 -115
-86 -131 -61 -14 -61 -15 -55 173 1 38 1 38 37 33 19 -4 48 -13 64 -21z"/>
<path d="M3595 1210 c-11 -5 -37 -16 -57 -24 l-38 -15 100 -144 100 -145 0
-116 0 -117 72 3 73 3 0 115 0 116 92 131 c51 72 95 138 98 146 4 10 -10 20
-46 35 -28 12 -57 22 -63 22 -6 0 -40 -44 -76 -96 -36 -53 -68 -98 -72 -100
-4 -3 -37 41 -73 96 -37 55 -72 100 -78 99 -7 0 -21 -4 -32 -9z"/>
<path d="M994 1202 c-6 -4 -10 -118 -10 -279 l0 -273 177 0 c155 0 178 2 183
16 4 9 4 19 2 22 -3 2 -75 4 -161 4 l-155 -2 0 254 c0 203 -3 255 -13 259 -8
3 -18 2 -23 -1z"/>
<path d="M1443 1202 c-31 -3 -33 -6 -34 -40 -1 -53 -1 -397 0 -459 l1 -53 190
0 c183 0 190 1 190 20 0 19 -7 20 -107 21 -60 0 -133 0 -164 -1 -39 -1 -58 3
-61 12 -3 7 -5 57 -5 111 l-1 97 143 0 c121 0 144 2 149 16 3 9 6 18 6 20 0 2
-67 4 -149 4 l-148 0 0 105 1 105 163 0 c156 0 163 1 163 20 0 14 -7 20 -22
21 -98 3 -289 3 -315 1z"/>
<path d="M2582 1195 c-79 -18 -122 -67 -122 -140 0 -78 44 -113 194 -154 43
-12 91 -31 107 -42 57 -40 43 -121 -27 -154 -66 -31 -201 -9 -252 42 -12 12
-16 11 -27 -4 -17 -22 -13 -27 39 -58 81 -47 221 -48 292 -2 39 25 58 65 58
118 -1 72 -47 108 -184 145 -117 31 -150 56 -150 113 0 87 114 130 230 86 62
-22 74 -23 78 -2 3 13 -9 23 -42 37 -56 25 -125 31 -194 15z"/>
<path d="M1899 1198 c-1 -4 -1 -486 0 -520 1 -21 6 -28 21 -28 12 0 20 7 21
18 0 9 1 113 1 230 1 116 2 212 3 212 1 0 22 -26 46 -57 24 -32 51 -66 59 -75
9 -9 70 -87 135 -172 91 -117 126 -155 143 -156 l22 0 0 275 0 275 -25 0 -25
0 0 -231 0 -231 -101 128 c-55 71 -112 145 -127 164 -95 124 -136 170 -153
170 -11 0 -19 -1 -20 -2z"/>
</g>
</svg>
